{"title":"Star.Trek.Into.Darkness.2013.720p.WEBRip.x264-Fastbet99","uid":8832292,"size":1468542843,"categoryP":"video","categoryS":"hd___movies","magnet":"?xt=urn:btih:dc69739cd01a401caa71f540f29d2242bee5f897&amp;dn=Star.Trek.Into.Darkness.2013.720p.WEBRip.x264-Fastbet99&amp;tr=udp%3A%2F%2Ftracker.openbittorrent.com%3A80&amp;tr=udp%3A%2F%2Fopen.demonii.com%3A1337&amp;tr=udp%3A%2F%2Ftracker.coppersurfer.tk%3A6969&amp;tr=udp%3A%2F%2Fexodus.desync.com%3A6969","seeders":1,"leechers":0,"uploader":"Fastbet99","files":-1,"time":1377019077,"description":"Star Trek Into Darkness (2013)\n\nIMDB Info\t\t\t\t : http://www.imdb.com/title/tt1408101/\n\nSource\t\t\t\t\t : PublicHD (Thanks)\nComplete name                            : Star.Trek.Into.Darkness.2013.720p.WEBRip.x264-Fastbet99.mp4\nFormat                                   : MPEG-4\nFormat profile                           : Base Media\nCodec ID                                 : isom\nFile size                                : 1.37 GiB\nDuration                                 : 2h 12mn\nOverall bit rate mode                    : Variable\nOverall bit rate                         : 1 478 Kbps\n\n\nVideo\nID                                       : 1\nFormat                                   : AVC\nFormat/Info                              : Advanced Video Codec\nFormat profile                           : &lt;a class=&quot;__cf_email__&quot; href=&quot;/cdn-cgi/l/email-protection&quot; data-cfemail=&quot;5c14353b341c1068726d&quot;&gt;[email&amp;#160;protected]&lt;/a&gt;&lt;script cf-hash='f9e31' type=&quot;text/javascript&quot;&gt;\n/* &lt;![CDATA[ */!function(){try{var t=&quot;currentScript&quot;in document?document.currentScript:function(){for(var t=document.getElementsByTagName(&quot;script&quot;),e=t.length;e--;)if(t[e].getAttribute(&quot;cf-hash&quot;))return t[e]}();if(t&amp;&amp;t.previousSibling){var e,r,n,i,c=t.previousSibling,a=c.getAttribute(&quot;data-cfemail&quot;);if(a){for(e=&quot;&quot;,r=parseInt(a.substr(0,2),16),n=2;a.length-n;n+=2)i=parseInt(a.substr(n,2),16)^r,e+=String.fromCharCode(i);e=document.createTextNode(e),c.parentNode.replaceChild(e,c)}}}catch(u){}}();/* ]]&gt; */&lt;/script&gt;\nFormat settings, CABAC                   : Yes\nFormat settings, ReFrames                : 4 frames\nCodec ID                                 : avc1\nCodec ID/Info                            : Advanced Video Coding\nDuration                                 : 2h 12mn\nBit rate                                 : 1 378 Kbps\nMaximum bit rate                         : 9 111 Kbps\nWidth                                    : 1 280 pixels\nHeight                                   : 532 pixels\nDisplay aspect ratio                     : 2.40:1\nFrame rate mode                          : Constant\nFrame rate                               : 23.976 fps\nColor space                              : YUV\nChroma subsampling                       : 4:2:0\nBit depth                                : 8 bits\nScan type                                : Progressive\nBits/(Pixel*Frame)                       : 0.084\nStream size                              : 1.27 GiB (93%)\nWriting library                          : x264 core 133 r2334 a3ac64b\n\n\nAudio\nID                                       : 2\nFormat                                   : AAC\nFormat/Info                              : Advanced Audio Codec\nFormat profile                           : LC\nCodec ID                                 : 40\nDuration                                 : 2h 12mn\nBit rate mode                            : Variable\nBit rate                                 : 96.0 Kbps\nMaximum bit rate                         : 127 Kbps\nChannel(s)                               : 2 channels\nChannel positions                        : Front: L R\nSampling rate                            : 48.0 KHz\nCompression mode                         : Lossy\nStream size                              : 90.7 MiB (6%)\nLanguage                                 : English\n\nText #1\nID                                       : 3\nFormat                                   : Timed Text\nCodec ID                                 : tx3g\nDuration                                 : 2h 3mn\nBit rate mode                            : Variable\nBit rate                                 : 84 bps\nStream size                              : 75.9 KiB (0%)\nLanguage                                 : English\n\n\nText #2\nID                                       : 4\nFormat                                   : Timed Text\nCodec ID                                 : tx3g\nDuration                                 : 2h 3mn\nBit rate mode                            : Variable\nBit rate                                 : 77 bps\nStream size                              : 69.3 KiB (0%)\nLanguage                                 : English\n\n\nText #3\nID                                       : 5\nFormat                                   : Timed Text\nCodec ID                                 : tx3g\nDuration                                 : 2h 3mn\nBit rate mode                            : Variable\nBit rate                                 : 69 bps\nStream size                              : 61.9 KiB (0%)\nLanguage                                 : Spanish\n\n\nText #4\nID                                       : 6\nFormat                                   : Timed Text\nCodec ID                                 : tx3g\nDuration                                 : 2h 3mn\nBit rate mode                            : Variable\nBit rate                                 : 79 bps\nStream size                              : 71.7 KiB (0%)\nLanguage                                 : French\n\n\nText #5\nID                                       : 7\nFormat                                   : Timed Text\nCodec ID                                 : tx3g\nDuration                                 : 2h 3mn\nBit rate mode                            : Variable\nBit rate                                 : 62 bps\nStream size                              : 56.4 KiB (0%)\nLanguage                                 : Portuguese\n\n\nText #6\nID                                       : 8\nFormat                                   : Timed Text\nCodec ID                                 : tx3g\nDuration                                 : 2h 3mn\nBit rate mode                            : Variable\nBit rate                                 : 90 bps\nLanguage                                 : Greek\n\nText #7\nID                                       : 9\nFormat                                   : Timed Text\nCodec ID                                 : tx3g\nDuration                                 : 2h 3mn\nBit rate mode                            : Variable\nBit rate                                 : 69 bps\nStream size                              : 62.4 KiB (0%)\nLanguage                                 : Polish\nEncoder\t\t\t\t\t : Fastbet99\n\nScreenshots\n &lt;a href=&quot;\nhttp://lookpic.com/O/i2/1013/wGBwGZ98.jpeg&quot; rel=&quot;nofollow&quot; target=&quot;_NEW&quot;&gt;\nhttp://lookpic.com/O/i2/1013/wGBwGZ98.jpeg&lt;/a&gt;\n\nStairway To heaven - Help People With Keep Seed As Long You Can","torrent":{"xt":"urn:btih:dc69739cd01a401caa71f540f29d2242bee5f897","amp;dn":"Star.Trek.Into.Darkness.2013.720p.WEBRip.x264-Fastbet99","amp;tr":["udp%3A%2F%2Ftracker.openbittorrent.com%3A80","udp%3A%2F%2Fopen.demonii.com%3A1337","udp%3A%2F%2Ftracker.coppersurfer.tk%3A6969","udp%3A%2F%2Fexodus.desync.com%3A6969"],"infoHash":"dc69739cd01a401caa71f540f29d2242bee5f897","infoHashBuffer":{"type":"Buffer","data":[220,105,115,156,208,26,64,28,170,113,245,64,242,157,34,66,190,229,248,151]},"announce":[],"urlList":[]}}